<svg width="28" height="28" viewBox="0 0 28 28" fill="none" xmlns="http://www.w3.org/2000/svg">
<circle cx="14" cy="14" r="13.5" fill="white" stroke="#C4CDD4"/>
<path d="M11.9219 9.51562H11.8125C11.8727 9.51562 11.9219 9.46641 11.9219 9.40625V9.51562H16.0781V9.40625C16.0781 9.46641 16.1273 9.51562 16.1875 9.51562H16.0781V10.5H17.0625V9.40625C17.0625 8.92363 16.6701 8.53125 16.1875 8.53125H11.8125C11.3299 8.53125 10.9375 8.92363 10.9375 9.40625V10.5H11.9219V9.51562ZM18.8125 10.5H9.1875C8.94551 10.5 8.75 10.6955 8.75 10.9375V11.375C8.75 11.4352 8.79922 11.4844 8.85938 11.4844H9.68516L10.0229 18.6348C10.0447 19.101 10.4303 19.4688 10.8965 19.4688H17.1035C17.5711 19.4688 17.9553 19.1023 17.9771 18.6348L18.3148 11.4844H19.1406C19.2008 11.4844 19.25 11.4352 19.25 11.375V10.9375C19.25 10.6955 19.0545 10.5 18.8125 10.5ZM16.9982 18.4844H11.0018L10.6709 11.4844H17.3291L16.9982 18.4844Z" fill="#7A7E84"/>
</svg>
