<svg width="28" height="28" viewBox="0 0 28 28" fill="none" xmlns="http://www.w3.org/2000/svg">
<circle cx="14" cy="14" r="13.5" fill="white" stroke="#C4CDD4"/>
<path d="M18.9841 9.01564C18.4402 8.47283 17.7032 8.16797 16.9348 8.16797C16.1664 8.16797 15.4293 8.47283 14.8854 9.01564L13.7941 10.107L8.88317 15.0181C8.7939 15.1073 8.73602 15.223 8.71827 15.3479L8.17238 19.1676C8.16055 19.2503 8.16663 19.3346 8.19023 19.4148C8.21382 19.495 8.25437 19.5692 8.30914 19.6323C8.3639 19.6955 8.4316 19.7461 8.50764 19.7808C8.58368 19.8155 8.66629 19.8335 8.74988 19.8335C8.77752 19.8335 8.80513 19.8316 8.83248 19.8277L12.6524 19.2821C12.7773 19.264 12.893 19.2061 12.9822 19.1169L18.9847 13.1149C19.2539 12.8457 19.4674 12.5262 19.6131 12.1745C19.7588 11.8229 19.8338 11.4459 19.8338 11.0653C19.8338 10.6846 19.7588 10.3077 19.6131 9.95599C19.4674 9.60431 19.2539 9.28478 18.9847 9.01564H18.9841ZM12.2946 18.1547L9.43746 18.5626L9.84579 15.7057L14.2067 11.3445L16.6559 13.7935L12.2946 18.1547ZM18.159 12.2901L17.4806 12.9687L15.0313 10.5195L15.7103 9.84047C16.0402 9.52564 16.4787 9.34998 16.9348 9.34998C17.3908 9.34998 17.8293 9.52564 18.1593 9.84047C18.484 10.1654 18.6665 10.6059 18.6665 11.0653C18.6665 11.5246 18.484 11.9652 18.1593 12.2901H18.159Z" fill="#7A7E84"/>
</svg>
